<?xml version="1.0" encoding="utf-8"?>
<!-- Generator: Adobe Illustrator 20.1.0, SVG Export Plug-In . SVG Version: 6.00 Build 0)  -->
<svg version="1.1" id="Layer_1" xmlns="http://www.w3.org/2000/svg" xmlns:xlink="http://www.w3.org/1999/xlink" x="0px" y="0px"
	 viewBox="0 0 100 100" style="enable-background:new 0 0 100 100;" xml:space="preserve">
<style type="text/css">
	.st0{fill:none;}
	.st1{display:none;fill:#A9B5BC;enable-background:new    ;}
	.st2{font-family:'DIN-Black';}
	.st3{font-size:6px;}
</style>
<g id="icons_art_boards">
</g>
<g id="titles">
	<rect x="21.6" y="79.2" class="st0" width="56.7" height="7.6"/>
	<text transform="matrix(1 0 0 1 44.5196 83.3793)" class="st1 st2 st3">crm</text>
	<g>
		<path d="M54.3,1.2c0,2.3,0,4.9,0,7.2C69.1,9.7,80.9,16.4,89,29c4.9,7.8,7,16.3,6.7,25.3c-0.5-2.5-1.1-5.4-2-8
			c-0.9-2.7-2.2-5.2-3.6-7.8c-1.4-2.3-3.3-4.7-5.1-6.9c-2.2-2-4.3-4-6.7-5.6c-2.3-1.6-4.9-2.9-7.6-4c-2.7-1.1-5.4-1.8-8.1-2.3
			c-2.7-0.5-5.6-0.5-8.7-0.7c0,2.3,0,4.7,0,7.2c-7.4-4.3-14.5-8.7-21.7-12.8c0.4-0.2,0.7-0.4,0.9-0.5c6.7-3.6,13.2-7.4,19.9-11
			c0.4-0.2,0.5-0.4,0.9-0.5C54.1,1.2,54.1,1.2,54.3,1.2z"/>
		<path d="M79.3,73.5c-2-1.1-4-2.3-6-3.6c7.2-4.2,14.5-8.1,21.9-12.3c-0.2,8.5-0.4,16.6-0.5,25.1c-2.2-1.3-4.2-2.5-6.3-3.8
			c-8,11.7-19,18.4-33.1,19.7c-9.8,0.9-19-1.4-27.1-6.9c9.6,4,19.3,4.3,29.1,0.9C67.1,89.2,74.4,82.7,79.3,73.5z"/>
		<path d="M4.3,77.6c2.2-1.3,4.3-2.5,6.3-3.6C4.3,61,3.7,48,9.7,34.8c3.8-8.3,12.7-17.5,19-19.9c-8.3,6.5-13.4,14.8-15,25.1
			s0.5,19.7,6.1,28.4c2-1.1,4-2.2,6-3.4c0,8.3,0,16.6,0,24.9C18.7,86,11.5,81.8,4.3,77.6z"/>
		<g>
			<path d="M38.8,47.5c-0.9-0.4-2.2-0.5-3.4-0.5c-3.3,0-4.2,1.3-4.2,5.4c0,4.3,1.1,5.6,4.3,5.6c1.3,0,2.3-0.2,3.4-0.7l0.4,3.3
				c-1.1,0.5-2.9,0.9-4.3,0.9c-5.2,0-7.8-2.9-7.8-9.2c0-5.8,2.5-8.9,8.1-8.9c1.4,0,3.1,0.4,4,0.7L38.8,47.5z"/>
			<path d="M51.6,54l4.2,7.2h-4.5l-3.1-6.5h-2.5v6.5h-4V43.7H48c4.3,0,6.5,1.6,6.5,5.4C54.5,51.6,53.4,53.2,51.6,54z M48,46.9h-2.5
				v4.7h2.3c1.8,0,2.5-0.5,2.5-2.3C50.5,47.5,49.8,46.9,48,46.9z"/>
			<path d="M61.7,43.7l4,10.1l0.7,1.8l0,0l0.7-1.8l4.2-10.1h4.3v17.5H72v-8.9v-1.8l0,0l-0.7,1.8l-3.6,9h-2.5l-3.6-9l-0.7-1.8l0,0
				v1.8v8.9h-3.4V43.7H61.7z"/>
		</g>
	</g>
</g>
</svg>
